<mxfile host="app.diagrams.net" modified="2024-04-08T13:38:03.977Z" agent="Mozilla/5.0 (X11; Linux x86_64) AppleWebKit/537.36 (KHTML, like Gecko) Chrome/123.0.0.0 Safari/537.36" etag="nCFD-BAkYdqTbm9yirl6" version="24.2.2" type="device">
  <diagram name="Page-1" id="KROujFh_Z0Tct3U-TirG">
    <mxGraphModel dx="1257" dy="743" grid="1" gridSize="10" guides="1" tooltips="1" connect="1" arrows="1" fold="1" page="1" pageScale="1" pageWidth="827" pageHeight="1169" math="0" shadow="0">
      <root>
        <mxCell id="0" />
        <mxCell id="1" parent="0" />
        <mxCell id="0nwjw3KvxGScyuVl_7w9-1" value="MongoDB" style="shape=cylinder3;whiteSpace=wrap;html=1;boundedLbl=1;backgroundOutline=1;size=15;" vertex="1" parent="1">
          <mxGeometry x="70" y="390" width="80" height="90" as="geometry" />
        </mxCell>
        <mxCell id="0nwjw3KvxGScyuVl_7w9-3" value="Cloudinary File Storage" style="rounded=1;whiteSpace=wrap;html=1;" vertex="1" parent="1">
          <mxGeometry x="200" y="390" width="120" height="90" as="geometry" />
        </mxCell>
        <mxCell id="0nwjw3KvxGScyuVl_7w9-12" style="edgeStyle=orthogonalEdgeStyle;rounded=0;orthogonalLoop=1;jettySize=auto;html=1;exitX=1;exitY=0.5;exitDx=0;exitDy=0;entryX=0;entryY=0.5;entryDx=0;entryDy=0;" edge="1" parent="1" source="0nwjw3KvxGScyuVl_7w9-4" target="0nwjw3KvxGScyuVl_7w9-11">
          <mxGeometry relative="1" as="geometry" />
        </mxCell>
        <mxCell id="0nwjw3KvxGScyuVl_7w9-4" value="" style="swimlane;startSize=0;" vertex="1" parent="1">
          <mxGeometry x="60" y="80" width="280" height="260" as="geometry" />
        </mxCell>
        <mxCell id="0nwjw3KvxGScyuVl_7w9-8" style="edgeStyle=orthogonalEdgeStyle;rounded=0;orthogonalLoop=1;jettySize=auto;html=1;" edge="1" parent="0nwjw3KvxGScyuVl_7w9-4" source="0nwjw3KvxGScyuVl_7w9-6" target="0nwjw3KvxGScyuVl_7w9-7">
          <mxGeometry relative="1" as="geometry">
            <Array as="points">
              <mxPoint x="150" y="170" />
              <mxPoint x="150" y="170" />
            </Array>
          </mxGeometry>
        </mxCell>
        <mxCell id="0nwjw3KvxGScyuVl_7w9-6" value="Frontend (ReactJS)" style="rounded=0;whiteSpace=wrap;html=1;" vertex="1" parent="0nwjw3KvxGScyuVl_7w9-4">
          <mxGeometry x="40" y="40" width="200" height="60" as="geometry" />
        </mxCell>
        <mxCell id="0nwjw3KvxGScyuVl_7w9-7" value="Backend (NodeJS)" style="rounded=0;whiteSpace=wrap;html=1;" vertex="1" parent="0nwjw3KvxGScyuVl_7w9-4">
          <mxGeometry x="20" y="160" width="240" height="60" as="geometry" />
        </mxCell>
        <mxCell id="0nwjw3KvxGScyuVl_7w9-9" style="edgeStyle=orthogonalEdgeStyle;rounded=0;orthogonalLoop=1;jettySize=auto;html=1;entryX=0.5;entryY=0;entryDx=0;entryDy=0;entryPerimeter=0;" edge="1" parent="1" source="0nwjw3KvxGScyuVl_7w9-7" target="0nwjw3KvxGScyuVl_7w9-1">
          <mxGeometry relative="1" as="geometry">
            <Array as="points">
              <mxPoint x="190" y="320" />
              <mxPoint x="110" y="320" />
            </Array>
          </mxGeometry>
        </mxCell>
        <mxCell id="0nwjw3KvxGScyuVl_7w9-10" style="edgeStyle=orthogonalEdgeStyle;rounded=0;orthogonalLoop=1;jettySize=auto;html=1;entryX=0.5;entryY=0;entryDx=0;entryDy=0;" edge="1" parent="1" source="0nwjw3KvxGScyuVl_7w9-7" target="0nwjw3KvxGScyuVl_7w9-3">
          <mxGeometry relative="1" as="geometry">
            <Array as="points">
              <mxPoint x="190" y="320" />
              <mxPoint x="260" y="320" />
            </Array>
          </mxGeometry>
        </mxCell>
        <mxCell id="0nwjw3KvxGScyuVl_7w9-11" value="GitHub Repository" style="rounded=1;whiteSpace=wrap;html=1;" vertex="1" parent="1">
          <mxGeometry x="380" y="180" width="120" height="60" as="geometry" />
        </mxCell>
        <mxCell id="0nwjw3KvxGScyuVl_7w9-13" value="" style="swimlane;startSize=0;" vertex="1" parent="1">
          <mxGeometry x="590" y="93" width="190" height="220" as="geometry" />
        </mxCell>
        <mxCell id="0nwjw3KvxGScyuVl_7w9-16" style="edgeStyle=orthogonalEdgeStyle;rounded=0;orthogonalLoop=1;jettySize=auto;html=1;exitX=1;exitY=0.5;exitDx=0;exitDy=0;entryX=0;entryY=0.5;entryDx=0;entryDy=0;" edge="1" parent="0nwjw3KvxGScyuVl_7w9-13" source="0nwjw3KvxGScyuVl_7w9-14" target="0nwjw3KvxGScyuVl_7w9-15">
          <mxGeometry relative="1" as="geometry" />
        </mxCell>
        <mxCell id="0nwjw3KvxGScyuVl_7w9-14" value="Jenkins" style="rounded=0;whiteSpace=wrap;html=1;" vertex="1" parent="0nwjw3KvxGScyuVl_7w9-13">
          <mxGeometry x="20" y="15" width="60" height="190" as="geometry" />
        </mxCell>
        <mxCell id="0nwjw3KvxGScyuVl_7w9-15" value="Build" style="rounded=0;whiteSpace=wrap;html=1;" vertex="1" parent="0nwjw3KvxGScyuVl_7w9-13">
          <mxGeometry x="110" y="15" width="60" height="190" as="geometry" />
        </mxCell>
        <mxCell id="0nwjw3KvxGScyuVl_7w9-17" style="edgeStyle=orthogonalEdgeStyle;rounded=0;orthogonalLoop=1;jettySize=auto;html=1;entryX=0.033;entryY=0.537;entryDx=0;entryDy=0;entryPerimeter=0;" edge="1" parent="1" source="0nwjw3KvxGScyuVl_7w9-11" target="0nwjw3KvxGScyuVl_7w9-14">
          <mxGeometry relative="1" as="geometry" />
        </mxCell>
        <mxCell id="0nwjw3KvxGScyuVl_7w9-29" value="CI/CD" style="edgeLabel;html=1;align=center;verticalAlign=middle;resizable=0;points=[];" vertex="1" connectable="0" parent="0nwjw3KvxGScyuVl_7w9-17">
          <mxGeometry x="-0.2856" y="-1" relative="1" as="geometry">
            <mxPoint as="offset" />
          </mxGeometry>
        </mxCell>
        <mxCell id="0nwjw3KvxGScyuVl_7w9-28" style="edgeStyle=orthogonalEdgeStyle;rounded=0;orthogonalLoop=1;jettySize=auto;html=1;" edge="1" parent="1" source="0nwjw3KvxGScyuVl_7w9-24" target="0nwjw3KvxGScyuVl_7w9-25">
          <mxGeometry relative="1" as="geometry" />
        </mxCell>
        <mxCell id="0nwjw3KvxGScyuVl_7w9-24" value="Users" style="sketch=0;outlineConnect=0;fontColor=#232F3E;gradientColor=none;fillColor=#232F3D;strokeColor=none;dashed=0;verticalLabelPosition=bottom;verticalAlign=top;align=center;html=1;fontSize=12;fontStyle=0;aspect=fixed;pointerEvents=1;shape=mxgraph.aws4.users;" vertex="1" parent="1">
          <mxGeometry x="864.5" y="360" width="100" height="100" as="geometry" />
        </mxCell>
        <mxCell id="0nwjw3KvxGScyuVl_7w9-25" value="Deployment" style="ellipse;shape=cloud;whiteSpace=wrap;html=1;" vertex="1" parent="1">
          <mxGeometry x="820" y="120" width="190" height="170" as="geometry" />
        </mxCell>
        <mxCell id="0nwjw3KvxGScyuVl_7w9-26" style="edgeStyle=orthogonalEdgeStyle;rounded=0;orthogonalLoop=1;jettySize=auto;html=1;entryX=0.068;entryY=0.488;entryDx=0;entryDy=0;entryPerimeter=0;" edge="1" parent="1" source="0nwjw3KvxGScyuVl_7w9-15" target="0nwjw3KvxGScyuVl_7w9-25">
          <mxGeometry relative="1" as="geometry" />
        </mxCell>
        <mxCell id="0nwjw3KvxGScyuVl_7w9-30" value="&amp;nbsp;Architecture" style="text;html=1;align=center;verticalAlign=middle;whiteSpace=wrap;rounded=0;fontSize=30;" vertex="1" parent="1">
          <mxGeometry x="395" y="450" width="366" height="30" as="geometry" />
        </mxCell>
        <mxCell id="0nwjw3KvxGScyuVl_7w9-31" value="Cloud" style="text;html=1;align=center;verticalAlign=middle;whiteSpace=wrap;rounded=0;" vertex="1" parent="1">
          <mxGeometry x="655" y="320" width="60" height="30" as="geometry" />
        </mxCell>
      </root>
    </mxGraphModel>
  </diagram>
</mxfile>
